<svg width="56" height="56" viewBox="0 0 56 56" fill="none" xmlns="http://www.w3.org/2000/svg">
<rect x="3" y="3" width="50" height="51" fill="#F2F2F2"/>
<path d="M48.8396 4.85058C49.4522 4.85058 50.0397 5.09394 50.4729 5.52711C50.9061 5.96028 51.1494 6.54779 51.1494 7.16039V48.8396C51.1494 49.4522 50.9061 50.0397 50.4729 50.4729C50.0397 50.9061 49.4522 51.1494 48.8396 51.1494H7.16039C6.54779 51.1494 5.96028 50.9061 5.52711 50.4729C5.09394 50.0397 4.85058 49.4522 4.85058 48.8396V7.16039C4.85058 6.54779 5.09394 5.96028 5.52711 5.52711C5.96028 5.09394 6.54779 4.85058 7.16039 4.85058H48.8396ZM48.8396 0H7.16039C5.26199 0.00213973 3.44196 0.757223 2.09959 2.09959C0.757223 3.44196 0.00213973 5.26199 0 7.16039L0 48.8396C0.00213973 50.738 0.757223 52.558 2.09959 53.9004C3.44196 55.2428 5.26199 55.9979 7.16039 56H48.8396C50.738 55.9979 52.558 55.2428 53.9004 53.9004C55.2428 52.558 55.9979 50.738 56 48.8396V7.16039C55.9979 5.26199 55.2428 3.44196 53.9004 2.09959C52.558 0.757223 50.738 0.00213973 48.8396 0V0Z" fill="#E08477"/>
<path d="M47.7998 6.76312H8.19939C7.81836 6.76312 7.45293 6.91449 7.18349 7.18392C6.91406 7.45335 6.7627 7.81878 6.7627 8.19982V47.8002C6.7627 48.1813 6.91406 48.5467 7.18349 48.8161C7.45293 49.0856 7.81836 49.2369 8.19939 49.2369H47.7998C48.1808 49.2369 48.5463 49.0856 48.8157 48.8161C49.0851 48.5467 49.2365 48.1813 49.2365 47.8002V8.19982C49.2365 7.81878 49.0851 7.45335 48.8157 7.18392C48.5463 6.91449 48.1808 6.76312 47.7998 6.76312V6.76312ZM44.5522 27.2222C44.5565 27.5673 44.424 27.9001 44.1835 28.1477C43.943 28.3954 43.6142 28.5376 43.2691 28.5434L29.9427 28.5596L44.2854 43.0547C44.3708 43.141 44.4384 43.2431 44.4843 43.3555C44.5302 43.4678 44.5535 43.5881 44.5529 43.7094C44.5523 43.8308 44.5278 43.9508 44.4808 44.0627C44.4339 44.1746 44.3653 44.2761 44.2791 44.3615C44.1929 44.4469 44.0907 44.5145 43.9783 44.5603C43.866 44.6062 43.7457 44.6296 43.6244 44.629C43.503 44.6284 43.383 44.6039 43.2711 44.5569C43.1592 44.5099 43.0577 44.4414 42.9723 44.3552L27.7565 28.9776C27.5705 28.7884 27.4447 28.5484 27.3949 28.2878C27.3452 28.0272 27.3737 27.7576 27.477 27.5132C27.5723 27.2782 27.7353 27.0769 27.9452 26.9346C28.1551 26.7923 28.4026 26.7156 28.6562 26.714L42.7044 26.6956V13.219H13.2948V42.5269H27.0751V36.1981C27.0751 35.953 27.1724 35.718 27.3457 35.5448C27.519 35.3715 27.754 35.2742 27.999 35.2742C28.2441 35.2742 28.4791 35.3715 28.6523 35.5448C28.8256 35.718 28.9229 35.953 28.9229 36.1981V43.0536C28.9273 43.3989 28.7945 43.7319 28.5538 43.9795C28.3131 44.2272 27.984 44.3693 27.6387 44.3748H12.7312C12.3859 44.3693 12.0568 44.2272 11.8161 43.9795C11.5754 43.7319 11.4427 43.3989 11.447 43.0536V12.6924C11.4427 12.347 11.5754 12.0141 11.8161 11.7664C12.0568 11.5188 12.3859 11.3767 12.7312 11.3712H43.268C43.6133 11.3767 43.9424 11.5188 44.1831 11.7664C44.4238 12.0141 44.5565 12.347 44.5522 12.6924V27.2222Z" fill="#E08477"/>
</svg>
