<svg width="58" height="56" viewBox="0 0 58 56" fill="none" xmlns="http://www.w3.org/2000/svg">
<path d="M53.474 56H3.56307C3.09516 56 2.63183 55.9095 2.19954 55.7337C1.76725 55.5579 1.37446 55.3002 1.0436 54.9754C0.712736 54.6505 0.450283 54.2649 0.271222 53.8405C0.0921614 53.416 0 52.9611 0 52.5017L0 3.49828C0 2.57048 0.375393 1.68068 1.0436 1.02462C1.7118 0.368568 2.61808 0 3.56307 0L53.474 0C53.9419 0 54.4052 0.0904858 54.8375 0.266291C55.2698 0.442096 55.6626 0.699778 55.9934 1.02462C56.3243 1.34947 56.5868 1.73512 56.7658 2.15955C56.9449 2.58398 57.037 3.03888 57.037 3.49828V52.5017C57.037 52.9611 56.9449 53.416 56.7658 53.8405C56.5868 54.2649 56.3243 54.6505 55.9934 54.9754C55.6626 55.3002 55.2698 55.5579 54.8375 55.7337C54.4052 55.9095 53.9419 56 53.474 56V56ZM3.56307 1.99902C3.15807 1.99902 2.76967 2.15698 2.48329 2.43814C2.19692 2.71931 2.03604 3.10065 2.03604 3.49828V52.5017C2.03604 52.8993 2.19692 53.2807 2.48329 53.5619C2.76967 53.843 3.15807 54.001 3.56307 54.001H53.474C53.879 54.001 54.2674 53.843 54.5537 53.5619C54.8401 53.2807 55.001 52.8993 55.001 52.5017V3.49828C55.001 3.10065 54.8401 2.71931 54.5537 2.43814C54.2674 2.15698 53.879 1.99902 53.474 1.99902H3.56307Z" fill="#090B17"/>
<path d="M46.6611 47.0445C46.5266 47.0443 46.3934 47.0179 46.2694 46.9668C46.1453 46.9158 46.0328 46.8411 45.9383 46.7471L28.2757 29.222C28.0673 29.0139 27.9263 28.7499 27.8706 28.4633C27.8149 28.1767 27.8469 27.8803 27.9626 27.6115C28.0696 27.3541 28.252 27.1335 28.4866 26.9779C28.7213 26.8222 28.9977 26.7383 29.281 26.737L45.643 26.7157V11.2446H11.3944V44.7556H27.5007V37.4892C27.5007 37.2241 27.6079 36.9699 27.7989 36.7824C27.9898 36.595 28.2487 36.4897 28.5187 36.4897C28.7887 36.4897 29.0476 36.595 29.2386 36.7824C29.4295 36.9699 29.5367 37.2241 29.5367 37.4892V45.3016C29.5418 45.6811 29.3935 46.0472 29.1242 46.3196C28.8549 46.5919 28.4866 46.7484 28.1001 46.7546H10.7937C10.4072 46.7484 10.0389 46.5919 9.7696 46.3196C9.50031 46.0472 9.35196 45.6811 9.35706 45.3016V10.6936C9.35298 10.3146 9.502 9.94942 9.77149 9.67804C10.041 9.40665 10.409 9.25114 10.795 9.24554H46.2424C46.6289 9.25147 46.9971 9.40764 47.2665 9.6798C47.5358 9.95196 47.6842 10.3179 47.6791 10.6973V27.2579C47.6842 27.6371 47.5362 28.0028 47.2674 28.2751C46.9987 28.5474 46.6311 28.7041 46.245 28.711L30.6451 28.736L47.3851 45.3528C47.5266 45.493 47.6226 45.6712 47.6611 45.8649C47.6996 46.0586 47.6788 46.2592 47.6013 46.4413C47.5239 46.6234 47.3933 46.7789 47.226 46.8883C47.0586 46.9976 46.8621 47.0559 46.6611 47.0557V47.0445Z" fill="#090B17"/>
</svg>
